<svg id="Flat" height="512" viewBox="0 0 512 512" width="512" xmlns="http://www.w3.org/2000/svg"><path d="m208 384-8 64-24 32h160l-24-32-8-64z" fill="#2d7dbf"/><path d="m272 456a8 8 0 0 0 0-16h-71l-1 8-6 8z" fill="#2a70ab"/><path d="m24 56h464v328h-464z" fill="#348fd9"/><path d="m24 56h464v264h-464z" fill="#4db7e5"/><circle cx="256" cy="352" fill="#4db7e5" r="8"/><g fill="#2d7dbf"><path d="m80 88h-16v192a7.9979 7.9979 0 0 0 8 8h376v-16h-368z"/><path d="m160 211.3125 26.34375 26.34375a7.99708 7.99708 0 0 0 11.3125 0l50.34375-50.34375 58.34375 58.34375 11.3125-11.3125-64-64a7.99708 7.99708 0 0 0 -11.3125 0l-50.34375 50.34375-26.34375-26.34375a7.99708 7.99708 0 0 0 -11.3125 0l-48 48 11.3125 11.3125z"/><path d="m316.686 200.001h22.627v15.998h-22.627z" transform="matrix(.707 -.707 .707 .707 -51.009 292.853)"/><path d="m348.686 168.001h22.627v15.998h-22.627z" transform="matrix(.707 -.707 .707 .707 -19.009 306.108)"/><path d="m380.686 136.001h22.627v15.998h-22.627z" transform="matrix(.707 -.707 .707 .707 12.991 319.362)"/><path d="m440 88h-32v16h12.6875l-10.34375 10.34375 11.3125 11.3125 10.34375-10.34375v12.6875h16v-32a7.99789 7.99789 0 0 0 -8-8z"/></g></svg>